<svg xmlns="http://www.w3.org/2000/svg" viewBox="0 0 1024 1024" role="img" aria-label="FolderPeek app icon: an open folder glowing from inside">
  <defs>
    <linearGradient id="bg" x1="140" y1="80" x2="890" y2="940" gradientUnits="userSpaceOnUse">
      <stop offset="0" stop-color="#1E5BBA"/>
      <stop offset="1" stop-color="#674EDD"/>
    </linearGradient>
    <linearGradient id="folder" x1="360" y1="300" x2="640" y2="820" gradientUnits="userSpaceOnUse">
      <stop offset="0" stop-color="#FFD65D"/>
      <stop offset="1" stop-color="#EB7918"/>
    </linearGradient>
    <linearGradient id="front" x1="420" y1="440" x2="600" y2="840" gradientUnits="userSpaceOnUse">
      <stop offset="0" stop-color="#FFC643"/>
      <stop offset="1" stop-color="#EB7918"/>
    </linearGradient>
    <radialGradient id="glow" cx="50%" cy="47%" r="36%">
      <stop offset="0" stop-color="#FFFFE2" stop-opacity="0.95"/>
      <stop offset="0.46" stop-color="#FFE271" stop-opacity="0.62"/>
      <stop offset="1" stop-color="#FFE271" stop-opacity="0"/>
    </radialGradient>
    <filter id="softShadow" x="-20%" y="-20%" width="140%" height="150%"><feDropShadow dx="0" dy="34" stdDeviation="34" flood-color="#07102E" flood-opacity="0.36"/></filter>
  </defs>
  <rect x="36" y="36" width="952" height="952" rx="210" fill="url(#bg)"/>
  <circle cx="520" cy="500" r="330" fill="url(#glow)"/>
  <g filter="url(#softShadow)">
    <path d="M206 318h186l52 68h368v324H204z" fill="url(#folder)"/>
    <rect x="184" y="378" width="656" height="368" rx="54" fill="url(#folder)"/>
    <path d="M230 432l576-22-46 208-492 24z" fill="#FFF6CE" opacity="0.78"/>
    <g stroke="#FFF8BA" stroke-linecap="round" opacity="0.48">
      <path d="M516 506l72-197" stroke-width="13"/>
      <path d="M516 506l200-193" stroke-width="11"/>
      <path d="M516 506l307-86" stroke-width="10"/>
      <path d="M516 506l307 78" stroke-width="10"/>
      <path d="M516 506l190 178" stroke-width="10"/>
      <path d="M516 506l72 192" stroke-width="12"/>
    </g>
    <path d="M176 468l682-32-68 360-562 24z" fill="url(#front)"/>
    <path d="M206 485l620-29-11 62-597 28z" fill="#FFE881" opacity="0.38"/>
    <path d="M235 503l550-26" stroke="#FFF9C2" stroke-width="7" stroke-linecap="round" opacity="0.52"/>
    <path d="M250 790l510-20" stroke="#8E3D1B" stroke-width="13" stroke-linecap="round" opacity="0.27"/>
  </g>
</svg>
