<svg xmlns="http://www.w3.org/2000/svg" viewBox="0 0 1024 1024" role="img" aria-label="FolderPeek Liquid Glass app icon: an SF Symbols style open folder glowing from inside">
  <defs>
    <linearGradient id="bg" x1="104" y1="96" x2="920" y2="928" gradientUnits="userSpaceOnUse">
      <stop offset="0" stop-color="#0A84FF"/>
      <stop offset="0.55" stop-color="#5E5CE6"/>
      <stop offset="1" stop-color="#7E57FF"/>
    </linearGradient>
    <linearGradient id="glass" x1="170" y1="88" x2="850" y2="936" gradientUnits="userSpaceOnUse">
      <stop offset="0" stop-color="#FFFFFF" stop-opacity="0.27"/>
      <stop offset="0.52" stop-color="#FFFFFF" stop-opacity="0.08"/>
      <stop offset="1" stop-color="#FFFFFF" stop-opacity="0.16"/>
    </linearGradient>
    <linearGradient id="folderBack" x1="340" y1="315" x2="680" y2="750" gradientUnits="userSpaceOnUse">
      <stop offset="0" stop-color="#FFDE69" stop-opacity="0.94"/>
      <stop offset="1" stop-color="#F38E24" stop-opacity="0.90"/>
    </linearGradient>
    <linearGradient id="folderFront" x1="350" y1="440" x2="650" y2="830" gradientUnits="userSpaceOnUse">
      <stop offset="0" stop-color="#FFCD48" stop-opacity="0.96"/>
      <stop offset="1" stop-color="#EF791E" stop-opacity="0.98"/>
    </linearGradient>
    <radialGradient id="glow" cx="50.6%" cy="50%" r="37%">
      <stop offset="0" stop-color="#FFFFF0" stop-opacity="0.95"/>
      <stop offset="0.48" stop-color="#FFD65D" stop-opacity="0.62"/>
      <stop offset="1" stop-color="#FFD65D" stop-opacity="0"/>
    </radialGradient>
    <filter id="softShadow" x="-20%" y="-20%" width="140%" height="150%"><feDropShadow dx="0" dy="36" stdDeviation="36" flood-color="#07104A" flood-opacity="0.36"/></filter>
  </defs>
  <rect id="AppIcon-Background" x="34" y="34" width="956" height="956" rx="218" fill="url(#bg)"/>
  <rect id="LiquidGlass-Lens" x="88" y="88" width="848" height="848" rx="190" fill="url(#glass)"/>
  <path id="LiquidGlass-SpecularTop" d="M178 178C346 146 536 134 760 118" fill="none" stroke="#FFFFFF" stroke-width="18" stroke-linecap="round" opacity="0.28"/>
  <path id="LiquidGlass-SpecularFine" d="M186 206C300 188 418 176 548 166" fill="none" stroke="#FFFFFF" stroke-width="7" stroke-linecap="round" opacity="0.42"/>
  <circle id="InteriorGlow" cx="518" cy="516" r="350" fill="url(#glow)"/>
  <g id="SFSymbolsStyle-Folder" filter="url(#softShadow)">
    <path d="M204 330h178l56 62h372v298H204z" fill="url(#folderBack)"/>
    <rect x="184" y="382" width="658" height="364" rx="62" fill="url(#folderBack)"/>
    <path d="M232 440l576-24-46 210-490 22z" fill="#FFFFF4" opacity="0.74"/>
    <g stroke="#FFFCCD" stroke-linecap="round" opacity="0.44">
      <path d="M518 520l78-195" stroke-width="12"/>
      <path d="M518 520l207-174" stroke-width="10"/>
      <path d="M518 520l310-78" stroke-width="9"/>
      <path d="M518 520l310 76" stroke-width="9"/>
      <path d="M518 520l193 174" stroke-width="9"/>
      <path d="M518 520l70 192" stroke-width="11"/>
    </g>
    <path d="M176 474l682-32-68 358-562 24z" fill="url(#folderFront)"/>
    <path d="M206 491l620-29-12 64-596 26z" fill="#FFF59E" opacity="0.40"/>
    <path d="M236 507l550-25" stroke="#FFFFDA" stroke-width="8" stroke-linecap="round" opacity="0.56"/>
    <path d="M256 790l502-20" stroke="#80371C" stroke-width="14" stroke-linecap="round" opacity="0.24"/>
  </g>
</svg>
